<svg viewbox="0 0 63 51" id="mascot-medium">
	<path d="M53 19.61a22.36 22.36 0 00-7.09-9.12 22.62 22.62 0 00-31.48 4.02 22.24 22.24 0 00-3.12 22.03 22.35 22.35 0 006.96 9.22 22.61 22.61 0 0010.66 4.56 99.44 99.44 0 01-1.49-5.98 28.5 28.5 0 004.19 2.23s.1 1.88.24 3.98c1.57.03 3.15-.1 4.69-.4a1.85 1.85 0 010-.67c.25-1.63.96-4.57 1.1-6.46a13.3 13.3 0 002.55-3.24l-.05.38c-.49 3.72-1.5 7.69-2.12 8.79-.2.36-.44.7-.73 1a22.63 22.63 0 0014.92-11.57 22.22 22.22 0 00.76-18.77zm-1.3 3.31c-.39.37-1.19.63-1.32-.5a29.94 29.94 0 01-.16-1.93s-1.7-3-2.34-3.03c-.63-.04-5.12 3.03-6.3 4.36-1.04 1.13-1.24 1.05-1.24 3.03 0 1.49.2 7.12.09 11.43l-7.17 1.9a56.68 56.68 0 01-6.86 1.5l-.88-5.09h-.12L23.14 23.1s-3.35-1.25-4.58-1.6a3.33 3.33 0 00-3.52.56 4.42 4.42 0 00-1.52 3.35c.19.41.33.83.42 1.27.05.42-1.05.37-1.76.37-.7 0-.8-1.25-.25-2.73.43-1.13.97-2.22 1.6-3.26.47-.92 1.09-1.77 1.82-2.52 0 0 .12-.3 1.1-.2.97.08 6.4.37 6.4.37l.04-1.98c5.9-.81 11.85-1.2 17.8-1.17v1.6a19.94 19.94 0 017.16-1.75.8.8 0 01.68.34c.3.38 2.12 2.62 2.33 2.94.59.84 1.13 1.71 1.6 2.62a5.42 5.42 0 01-.76 1.6v.01z" fill="#FDC305"></path>
	<path d="M40.22 39.78c.11-.93.17-2.17.2-3.54l-7.16 1.9a56.68 56.68 0 01-6.86 1.54l.98 4.36c0 .1 0 .19.06.28a28.5 28.5 0 004.19 2.23c2.12-1.01 4.15-2.22 6.05-3.6V43c1-.94 1.86-2.02 2.54-3.22z" fill="#F06351"></path>
	<path d="M32.22 32.09c1.82 0 3.3-1.47 3.3-3.27 0-1.81-1.48-3.27-3.3-3.27a3.28 3.28 0 00-3.3 3.27c0 1.8 1.48 3.27 3.3 3.27z" fill="#FDC305"></path>
	<path d="M36.6 26.16l-2.76 1.14 1.01-4.91-6.6 8.51 2.76-1.14L30 34.68l6.6-8.52zm-6.5 3.34l3.65-4.72-.7 3.49 1.75-.72-3.68 4.73.7-3.49-1.72.7zM28.86 28.21c.55 0 .99-.43.99-.97a.98.98 0 00-.99-.98.98.98 0 00-.98.98c0 .54.44.97.98.97zM34.6 31.76c.38 0 .7-.31.7-.7a.7.7 0 00-.7-.68.7.7 0 00-.7.69c0 .38.31.69.7.69zM35.44 29.86a.3.3 0 00.31-.3.3.3 0 00-.3-.3.3.3 0 00-.32.3c0 .17.14.3.31.3z" fill="#111"></path>
	<use href="#mascot-head" width="21.31" height="25.71" x="20.73" y="0.57"></use>
	<path d="M50.87 18.7l-.88-1.12a38.4 38.4 0 0112.04 9.37c-9.83-2.19-10.07 6.35-10.07 6.35-7.13-3.28-6.87 2.98-6.87 2.98-.7-1.03-3.04-1.46-4.64-1.64.03-2.7-.03-5.63-.07-7.64l-.04-2.15c0-1.73.15-1.89.88-2.65l.35-.38c1.19-1.33 5.68-4.4 6.32-4.36.63.03 2.33 3.03 2.33 3.03s.05.75.18 1.88.93.88 1.32.5c.33-.47.59-1 .76-1.55-.49-.9-1.02-1.77-1.61-2.61zM18.56 21.5c1.23.35 4.58 1.6 4.58 1.6l2.4 11.5a5.36 5.36 0 00-3.86 1.13c-.84.61-1.62 1.3-2.33 2.06l-.47-3.37s-.13-1.97-2-1.84c-1.66.2-3.32.52-4.94.96 0 0 .22-3.6-4.4-4.07-2.39-.28-4.8-.35-7.2-.2 0 0 8.4-5.73 13.19-8.2a19.83 19.83 0 00-1.6 3.25c-.56 1.48-.45 2.73.25 2.73h.19c.7 0 1.61.01 1.57-.37a6.2 6.2 0 00-.42-1.27 4.4 4.4 0 011.52-3.35 3.32 3.32 0 013.52-.55z" fill="#F06351"></path>
</svg>
