<svg id="mascot-small" viewbox="0 0 35 39">
	<path id="back-close-up" d="M27.74 25.06c-1.16 1.28-1.39 1.2-1.39 3.45v9.18a16.64 16.64 0 007.47-13.86 17.3 17.3 0 00-.32-3.1c-2.07 1.23-4 2.68-5.76 4.33zM6.86 26.55s-3.79-1.44-5.19-1.83a8.53 8.53 0 00-1.17-.28 16.65 16.65 0 008.68 14L6.86 26.55zM6.61 21.41v-2.6l.94-8.59A16.66 16.66 0 00.73 21.08l5.88.33zM26.78 17.82s0 1.21-.06 1.82a25.52 25.52 0 016-1.82 16.67 16.67 0 00-6.83-8.2l.9 8.2z" fill="#FDC305"></path>
	<use href="#mascot-head" width="24.15" height="29.14" x="3.95" y="0.83"></use>
</svg>
