<svg width="25" height="30" viewBox="0 0 25 30">
	<path d="M22.8 17.82a88.7 88.7 0 00-1.4-16.34s-.15-1.29-.87-.24c-.59 1.26-1 2.59-1.2 3.96a71.22 71.22 0 00-12.77.33C5.74 2.81 4.35 1.58 3.68 1.9c-.67.33-.75 3.25-.75 3.25l-.33 14c6.7-.92 13.44-1.36 20.2-1.33zM12.9 22.12c-.12.23-.27.43-.46.6-.28.22-.63.35-1 .37-.55.05-1.1-.1-1.53-.43-.2-.12-.38-.27-.53-.45a1 1 0 00-.36-.25s.75 4.07 2.56 4.72c1.82.65 2.16-.75 2.2-1.13a5.53 5.53 0 00-.81-3.2c0-.18 0-.18-.03-.18 0 0-.02 0-.04-.05z" fill="#F06351"></path>
	<path d="M17.67 24.76a57.03 57.03 0 015.08-5.15s.71-.33 1.85-.7a6.3 6.3 0 01-1.14 1.98 57.25 57.25 0 01-5.98 5.84c-1.8 1.4-4.21 3.1-5.07 3.24A22.54 22.54 0 01.45 21.23l2 .11a31.7 31.7 0 003.12 2.97c2.06 1.67 5.19 3.8 5.19 3.8s1.4.97 1.62 1.5a31.68 31.68 0 005.3-4.85z" fill="#F06351"></path>
	<path d="M9.54 15.12c-.35-.24-.66-.45-.63-.4.47.6 1.01 1.13 1.63 1.58h-.3l-.42-.03c-.29-.03-.56-.06-.5.03.07.14.63.26.99.26s.62-.17.62-.34-.2-.35-.61-.58c-.19-.11-.5-.33-.78-.52zM15.3 16.16a30.8 30.8 0 001.09-1.32c.08-.11.05 0 .05 0l-.85 1.26c.24-.04.57-.07.8-.09l.2-.02c.19-.02.23.12.12.18-.4.12-.8.22-1.22.28-.36.05-.28-.23-.19-.29zM13.26 20.88c.46-.2.84-.55 1.08-1 .28-.65 0-.9-.43-.98-.6-.11-1.23.01-1.75.33-.39.37-.34.73 0 1 .34.26.7.47 1.1.65zM9.89 22.78c.4.24.85.4 1.31.47a2.27 2.27 0 001.7-.93 1.54 1.54 0 001.11.72c.6.04 1.22-.42 1.89-1.4a.14.14 0 00-.04-.2.14.14 0 00-.2.05c-.57.86-1 1.31-1.63 1.27-.61-.04-1-.79-1-.79l-.1-.21-.13.18a2.1 2.1 0 01-1.64 1 3.23 3.23 0 01-2.1-1.3.14.14 0 00-.2 0 .15.15 0 000 .2c.28.38.62.7 1.03.94z" fill="#111"></path>
</svg>
