<svg width="80" height="80" viewBox="0 0 80 80" fill="none" xmlns="http://www.w3.org/2000/svg">
<rect width="80" height="80" rx="6" fill="white"/>
<g clip-path="url(#clip0_39374_1193)">
<path d="M61.2627 22.3356L69.7227 12.9718L68.1927 9.5L60.0427 20.3616L61.2627 22.3356Z" fill="#FDC305"/>
<path d="M72.6931 22.5439L67.1531 26.6207L66.5131 23.6052L71.9131 18.8341L72.6931 22.5439Z" fill="#FDC305"/>
<path d="M64.423 58.4716L70.553 61.6259L73.563 59.3048L66.873 56.577L64.423 58.4716Z" fill="#FDC305"/>
<path d="M9.52001 12.0889L6.45001 15.4218L17.59 23.2779L18.81 21.0163L9.52001 12.0889Z" fill="#FDC305"/>
<path d="M11.88 25.6486L7.18003 22.5439L4.78003 26.3826L9.93003 28.7633L11.88 25.6486Z" fill="#FDC305"/>
<path d="M13.86 64.9489L18.41 61.6259L20.68 64.5124L16.66 68.5L13.86 64.9489Z" fill="#FDC305"/>
<path d="M64.3824 33.3063C62.6584 29.2091 59.882 25.6317 56.3298 22.9304C52.7777 20.2292 48.5738 18.4985 44.1372 17.9108C39.7007 17.3231 35.1862 17.899 31.0439 19.581C26.9016 21.263 23.276 23.9924 20.5285 27.4972C17.781 31.002 16.0076 35.1599 15.3848 39.5563C14.7621 43.9528 15.3119 48.4344 16.9794 52.5544C18.6469 56.6745 21.3739 60.2891 24.8885 63.0382C28.4032 65.7872 32.5829 67.5746 37.011 68.2222C36.431 66.1491 35.841 63.8577 35.3209 61.4275C36.8338 62.4008 38.4261 63.2469 40.0812 63.9569C40.0812 63.9569 40.2012 66.0995 40.3612 68.49C42.1495 68.5206 43.9361 68.3643 45.6914 68.0238C45.6461 67.7745 45.6461 67.5192 45.6914 67.2699C45.9815 65.415 46.7815 62.0722 46.9415 59.9197C48.0948 58.8497 49.0733 57.6082 49.8417 56.2397L49.7816 56.6761C49.2316 60.9018 48.0816 65.415 47.3815 66.6649C47.1549 67.0786 46.876 67.4619 46.5515 67.8056C50.1715 66.9633 53.5634 65.3501 56.4923 63.078C59.4211 60.8059 61.8166 57.9291 63.5129 54.6472C65.2091 51.3653 66.1655 47.7567 66.3156 44.0716C66.4658 40.3866 65.8061 36.7132 64.3824 33.3063ZM62.9123 37.0657C62.4723 37.4922 61.5622 37.7799 61.4122 36.4903C61.2622 35.2008 61.2222 34.2982 61.2222 34.2982C61.2222 34.2982 59.2921 30.8959 58.5721 30.8562C57.852 30.8165 52.7418 34.2982 51.3917 35.8158C50.2217 37.0954 49.9917 37.0062 49.9917 39.2578C49.9917 40.954 50.2117 47.3619 50.0917 52.262L41.9413 54.4145C39.3795 55.1438 36.7743 55.7136 34.1409 56.1206L33.1408 50.3377H33.0008L30.4307 37.274C30.4307 37.274 26.6205 35.8456 25.2204 35.4587C24.563 35.1735 23.8371 35.0807 23.1283 35.1915C22.4195 35.3022 21.7574 35.6118 21.2202 36.0837C20.6722 36.5596 20.234 37.1471 19.9355 37.8061C19.6369 38.4651 19.485 39.1801 19.4902 39.9026C19.7015 40.3636 19.8625 40.8458 19.9702 41.3409C20.0202 41.817 18.7701 41.7674 17.9701 41.7674C17.17 41.7674 17.05 40.339 17.6801 38.6627C18.1716 37.3737 18.7808 36.1319 19.5002 34.9529C20.0412 33.8996 20.7391 32.9333 21.5703 32.0862C21.5703 32.0862 21.7103 31.7489 22.8203 31.8481C23.9304 31.9473 30.1007 32.2746 30.1007 32.2746L30.1507 30.023C36.8574 29.1045 43.6214 28.6603 50.3917 28.6938C50.3917 29.2989 50.3917 29.9039 50.3917 30.509C52.9561 29.3483 55.7174 28.6753 58.5321 28.5251C58.6827 28.5214 58.8319 28.5547 58.9663 28.6223C59.1007 28.6898 59.2161 28.7893 59.3021 28.912C59.6421 29.3385 61.7122 31.8878 61.9523 32.2548C62.6245 33.2078 63.2357 34.2016 63.7823 35.2306C63.595 35.8821 63.3011 36.4987 62.9123 37.0557V37.0657Z" fill="#FDC305"/>
<path d="M49.8514 56.2396C49.9814 55.1783 50.0514 53.7697 50.0914 52.2124L41.9414 54.3649C39.3808 55.1109 36.7757 55.6973 34.1414 56.1206L35.2514 61.0803C35.2514 61.1894 35.2514 61.2985 35.3214 61.4076C36.8341 62.381 38.4263 63.2271 40.0814 63.937C42.5 62.7902 44.8037 61.4185 46.9614 59.8403V59.8999C48.1094 58.8351 49.0843 57.6004 49.8514 56.2396V56.2396Z" fill="#F06351"/>
<path d="M40.7617 47.491C42.8328 47.491 44.5117 45.8256 44.5117 43.7713C44.5117 41.7169 42.8328 40.0515 40.7617 40.0515C38.6907 40.0515 37.0117 41.7169 37.0117 43.7713C37.0117 45.8256 38.6907 47.491 40.7617 47.491Z" fill="#FDC305"/>
<path d="M45.7315 40.7458L42.6015 42.0453L43.7515 36.4607L36.2515 46.1419L39.3815 44.8425L38.2315 50.437L45.7315 40.7458ZM38.3415 44.5449L42.5015 39.1786L41.6915 43.1463L43.6915 42.3329L39.5015 47.7092L40.3115 43.7415L38.3415 44.5449Z" fill="#111111"/>
<path d="M36.9415 43.0867C37.5601 43.0867 38.0615 42.5893 38.0615 41.9757C38.0615 41.3621 37.5601 40.8647 36.9415 40.8647C36.323 40.8647 35.8215 41.3621 35.8215 41.9757C35.8215 42.5893 36.323 43.0867 36.9415 43.0867Z" fill="#111111"/>
<path d="M43.4619 47.1139C43.8982 47.1139 44.2519 46.763 44.2519 46.3303C44.2519 45.8975 43.8982 45.5466 43.4619 45.5466C43.0256 45.5466 42.6719 45.8975 42.6719 46.3303C42.6719 46.763 43.0256 47.1139 43.4619 47.1139Z" fill="#111111"/>
<path d="M44.422 44.9614C44.6153 44.9614 44.772 44.806 44.772 44.6143C44.772 44.4225 44.6153 44.2671 44.422 44.2671C44.2287 44.2671 44.072 44.4225 44.072 44.6143C44.072 44.806 44.2287 44.9614 44.422 44.9614Z" fill="#111111"/>
<path d="M50.4323 28.6938C50.473 23.1973 50.0043 17.7087 49.0323 12.2972C49.0323 12.2972 48.8823 11.0077 48.1622 12.0592C47.5681 13.3162 47.1637 14.6531 46.9622 16.0269C42.6871 15.7548 38.396 15.8677 34.1415 16.3641C33.3215 13.6363 31.9214 12.3964 31.2514 12.7238C30.5813 13.0511 30.5013 15.9773 30.5013 15.9773L30.1713 30.023C36.8846 29.1036 43.6554 28.6594 50.4323 28.6938Z" fill="#F06351"/>
<path d="M40.5016 33.0087C40.3868 33.2337 40.2308 33.4355 40.0416 33.6039C39.7568 33.8312 39.4067 33.9631 39.0416 33.9808C38.4911 34.0344 37.9405 33.8784 37.5016 33.5444C37.3 33.4274 37.1207 33.2763 36.9716 33.098C36.8716 32.99 36.7486 32.9053 36.6116 32.85C36.6116 32.85 37.3616 36.9269 39.1816 37.5815C41.0016 38.2362 41.3416 36.8277 41.3916 36.4507C41.4525 35.3218 41.1666 34.2011 40.5716 33.2369C40.5716 33.058 40.5644 33.0583 40.5478 33.059C40.5368 33.0595 40.5216 33.0602 40.5016 33.0087Z" fill="#F06351"/>
<path d="M45.2921 35.6572C46.8769 33.8295 48.5771 32.1034 50.3823 30.4892C50.3823 30.4892 51.1024 30.1619 52.2424 29.785C51.9868 30.5093 51.6005 31.1816 51.1024 31.7688C49.249 33.8654 47.2436 35.8247 45.1021 37.6311C43.292 39.0297 40.8719 40.7458 40.0118 40.8847C35.1281 39.3897 30.8984 36.2991 28.0112 32.116L30.0113 32.2251C30.9887 33.2866 32.0378 34.2809 33.1515 35.2009C35.2116 36.8773 38.3517 39.0099 38.3517 39.0099C38.3517 39.0099 39.7618 39.9919 39.9818 40.5176C41.9319 39.1023 43.7134 37.4717 45.2921 35.6572Z" fill="#F06351"/>
<path d="M37.1283 25.9835C36.7796 25.7442 36.474 25.5345 36.5015 25.5891C36.9671 26.1885 37.5159 26.7195 38.1315 27.1662H37.8415C37.7251 27.1662 37.5687 27.1499 37.4167 27.1341C37.1249 27.1037 36.8489 27.0749 36.9015 27.1662C36.9815 27.3051 37.5415 27.4241 37.9015 27.4241C38.2615 27.4241 38.5215 27.2555 38.5215 27.0869C38.5215 26.9182 38.3215 26.7397 37.9115 26.5016C37.7271 26.3946 37.4133 26.1791 37.1283 25.9835Z" fill="#111111"/>
<path d="M42.9118 27.0274C43.0018 26.9678 44.0018 25.6982 44.0018 25.6982C44.0818 25.5891 44.0518 25.7081 44.0518 25.7081L43.2018 26.9678C43.4396 26.9236 43.7712 26.8958 44.0038 26.8763C44.0843 26.8696 44.153 26.8638 44.2018 26.8587C44.3918 26.8389 44.4318 26.9778 44.3218 27.0373C43.923 27.161 43.5151 27.2538 43.1018 27.315C42.7418 27.3646 42.8218 27.0869 42.9118 27.0274Z" fill="#111111"/>
<path d="M40.8617 31.7589C41.3252 31.5563 41.7084 31.2076 41.9517 30.7669C42.2317 30.1123 41.9517 29.8643 41.5117 29.775C40.9063 29.6654 40.2816 29.7858 39.7617 30.1123C39.3717 30.4793 39.4217 30.8364 39.7617 31.1042C40.0995 31.3669 40.469 31.5869 40.8617 31.7589Z" fill="#111111"/>
<path d="M37.4801 33.6689C37.884 33.9127 38.3335 34.0728 38.8015 34.1395C39.1369 34.1192 39.4636 34.025 39.7577 33.8637C40.0518 33.7024 40.3059 33.4781 40.5015 33.2071C40.6219 33.403 40.785 33.5698 40.9788 33.6951C41.1726 33.8204 41.3922 33.901 41.6215 33.9312C42.2149 33.9709 42.8449 33.5047 43.5115 32.5326C43.5327 32.501 43.5404 32.4624 43.5329 32.4252C43.5254 32.3879 43.5034 32.3552 43.4715 32.3342C43.4397 32.3131 43.4007 32.3055 43.3632 32.3129C43.3257 32.3204 43.2927 32.3423 43.2715 32.3739C42.7015 33.2368 42.2615 33.6931 41.6415 33.6534C41.0215 33.6138 40.6415 32.8599 40.6415 32.8599L40.5415 32.6417L40.4015 32.8301C40.2268 33.1124 39.987 33.3495 39.7019 33.522C39.4168 33.6944 39.0945 33.7973 38.7615 33.8221C38.3406 33.7548 37.9374 33.6053 37.5751 33.3823C37.2129 33.1592 36.899 32.867 36.6515 32.5226C36.6385 32.5094 36.6229 32.499 36.6058 32.4918C36.5886 32.4846 36.5702 32.481 36.5515 32.481C36.5329 32.481 36.5145 32.4846 36.4973 32.4918C36.4801 32.499 36.4646 32.5094 36.4515 32.5226C36.4269 32.5499 36.4133 32.5852 36.4133 32.6218C36.4133 32.6584 36.4269 32.6938 36.4515 32.721C36.7263 33.1026 37.0763 33.4251 37.4801 33.6689Z" fill="#111111"/>
<path d="M61.9628 32.2748C61.8428 32.116 61.4328 31.5903 60.9628 30.9952C66.2035 33.5994 70.8627 37.2223 74.6635 41.6485C63.4829 39.1587 63.2029 48.8697 63.2029 48.8697C55.1025 45.1401 55.3925 52.2621 55.3925 52.2621C54.5925 51.0917 51.9323 50.5957 50.1223 50.3973C50.1493 47.3263 50.0804 43.997 50.0329 41.7023C50.0101 40.6023 49.9922 39.7401 49.9922 39.2579C49.9922 37.295 50.167 37.1111 50.987 36.2485C51.1077 36.1216 51.2423 35.98 51.3923 35.8159C52.7424 34.2983 57.8526 30.8166 58.5727 30.8563C59.2927 30.896 61.2228 34.2983 61.2228 34.2983C61.2228 34.2983 61.2828 35.1513 61.4328 36.4409C61.5828 37.7304 62.4929 37.4427 62.9329 37.0162C63.3123 36.4767 63.6027 35.8807 63.7929 35.2505C63.2463 34.2216 62.6351 33.2277 61.9628 32.2748Z" fill="#F06351"/>
<path d="M25.221 35.4588C26.6211 35.8457 30.4313 37.2741 30.4313 37.2741L33.1514 50.3477C31.5776 50.1943 30.0057 50.657 28.7712 51.6372C27.8134 52.3305 26.9259 53.1145 26.1211 53.9782L25.591 50.1493C25.591 50.1493 25.441 47.9076 23.3209 48.0464C21.4192 48.2745 19.5373 48.6425 17.6907 49.1475C17.6907 49.1475 17.9407 45.0409 12.6904 44.5152C9.97292 44.1934 7.23182 44.1137 4.5 44.2771C4.5 44.2771 14.0505 37.77 19.5007 34.953C18.7814 36.132 18.1722 37.3738 17.6807 38.6628C17.0506 40.3391 17.1706 41.7675 17.9707 41.7675C18.0375 41.7675 18.1076 41.7679 18.1797 41.7682C18.9706 41.7721 20.0166 41.7773 19.9708 41.341C19.8631 40.8459 19.7021 40.3637 19.4907 39.9027C19.4856 39.1802 19.6375 38.4652 19.9361 37.8062C20.2346 37.1472 20.6728 36.5597 21.2208 36.0838C21.758 35.6119 22.4201 35.3023 23.1289 35.1916C23.8377 35.0808 24.5636 35.1736 25.221 35.4588Z" fill="#F06351"/>
</g>
<defs>
<clipPath id="clip0_39374_1193">
<rect width="71" height="60" fill="white" transform="translate(4.5 9)"/>
</clipPath>
</defs>
</svg>
