<svg width="28" height="22" viewBox="0 0 28 22" xmlns="http://www.w3.org/2000/svg">
	<path
		d="M0.518524 5.33876C0.518524 4.48373 1.03363 4.02268 2.06383 3.95562L6.03368 3.98077C6.30011 3.98077 6.47773 4.10651 6.56654 4.35799C6.97507 5.61538 7.43245 6.70094 7.93867 7.61465C8.44489 8.52835 9.10653 9.58038 9.92359 10.7707C9.99464 10.9216 10.1101 10.997 10.27 10.997C10.3943 10.997 10.492 10.9384 10.563 10.821L10.643 10.5444L10.6696 6.19379C10.6696 5.89201 10.5941 5.69083 10.4431 5.59024C10.2922 5.48964 10.0124 5.4142 9.60387 5.36391C9.28415 5.31361 9.12429 5.12919 9.12429 4.81065C9.12429 4.74359 9.13317 4.69329 9.15094 4.65976C9.52394 3.57002 10.5897 3.02515 12.3481 3.02515L13.8401 3C14.5151 3 15.0746 3.15927 15.5187 3.47781C15.9627 3.79635 16.1848 4.29931 16.1848 4.98669V10.6953C16.3091 10.7791 16.4245 10.821 16.5311 10.821C16.7975 10.821 17.0285 10.6701 17.2238 10.3683C19.1777 7.78649 20.2345 6.05966 20.3944 5.18787C20.3944 5.1711 20.4121 5.12919 20.4477 5.06213C20.572 4.81065 20.7763 4.5927 21.0605 4.40828C21.3447 4.22387 21.5933 4.09813 21.8065 4.03107C21.8775 3.99753 21.9575 3.98077 22.0463 3.98077H26.176L26.4424 4.00592C26.7976 4.00592 27.073 4.16519 27.2683 4.48373C27.3394 4.58432 27.3882 4.69329 27.4149 4.81065C27.4415 4.92801 27.4593 5.04536 27.4682 5.16272C27.477 5.28008 27.4815 5.34714 27.4815 5.36391V5.53994C27.3572 6.22732 27.0419 6.9608 26.5357 7.74038C26.0294 8.51997 25.3856 9.36243 24.604 10.2678C23.8225 11.1731 23.334 11.7682 23.1386 12.0533C22.9788 12.2544 22.8988 12.4389 22.8988 12.6065C22.8988 12.7406 22.9699 12.8915 23.112 13.0592L27.0019 17.6864C27.2151 17.9546 27.3216 18.248 27.3216 18.5666C27.3216 18.9522 27.1618 19.2707 26.8421 19.5222C26.5223 19.7737 26.1404 19.9162 25.6964 19.9497L25.2435 19.9749H21.1937C21.1759 19.9749 21.1404 19.979 21.0871 19.9874C21.0338 19.9958 20.9983 20 20.9805 20C20.5898 20 20.2256 19.8407 19.8882 19.5222C19.7638 19.3881 18.929 18.3989 17.3837 16.5547C17.2949 16.4374 17.1706 16.3284 17.0107 16.2278C16.9396 16.4961 16.8464 16.8817 16.7309 17.3846C16.6155 17.8876 16.5311 18.248 16.4778 18.466L16.3979 18.8935C16.2203 19.4803 15.8473 19.8323 15.2789 19.9497L14.9059 19.9749H12.2948C10.8206 19.9749 9.35076 19.3378 7.88538 18.0636C6.42 16.7894 5.10116 15.1423 3.92886 13.122C2.75656 11.1018 1.66418 8.75049 0.65174 6.06805C0.56293 5.8501 0.518524 5.607 0.518524 5.33876ZM16.5311 11.8521C16.1581 11.8521 15.8206 11.7557 15.5187 11.5629C15.2167 11.3701 15.0657 11.106 15.0657 10.7707V4.98669C15.0657 4.65138 14.9769 4.41248 14.7993 4.26997C14.6217 4.12747 14.3108 4.05621 13.8668 4.05621L12.3481 4.10651C11.5844 4.10651 11.0071 4.23225 10.6163 4.48373C11.3978 4.8358 11.7886 5.40582 11.7886 6.19379V10.6198C11.7531 11.039 11.5755 11.3868 11.2558 11.6635C10.936 11.9401 10.5808 12.0784 10.19 12.0784C9.65716 12.0784 9.24863 11.8353 8.96443 11.3491C7.57898 9.37081 6.54878 7.4931 5.87382 5.71598L5.63403 5.06213L2.09048 5.03698C1.85957 5.03698 1.73079 5.04956 1.70415 5.0747C1.67751 5.09985 1.66418 5.1711 1.66418 5.28846C1.66418 5.43935 1.68195 5.59862 1.71747 5.76627L2.27698 7.17456C3.769 10.8126 5.3898 13.6795 7.13937 15.7751C8.88894 17.8708 10.6074 18.9186 12.2948 18.9186H14.9592C15.0657 18.9186 15.1457 18.8893 15.199 18.8306C15.2522 18.7719 15.2966 18.6588 15.3322 18.4911L15.3855 18.2396L15.8917 16.0266C16.0338 15.7249 16.1581 15.5237 16.2647 15.4231C16.4601 15.2387 16.691 15.1465 16.9574 15.1465C17.3837 15.1465 17.8189 15.3895 18.2629 15.8757L20.5276 18.5917C20.6697 18.8097 20.8207 18.9186 20.9805 18.9186H25.3767C25.9095 18.9186 26.176 18.7929 26.176 18.5414C26.176 18.4576 26.1493 18.3738 26.096 18.2899L22.2328 13.7382C21.9308 13.3861 21.7798 13.0089 21.7798 12.6065C21.7798 12.2041 21.9219 11.8185 22.2061 11.4497C22.437 11.1144 22.8855 10.557 23.5516 9.77737C24.2177 8.99778 24.7994 8.26849 25.2967 7.5895C25.7941 6.9105 26.1227 6.29438 26.2825 5.74112L26.3625 5.4142C26.3447 5.38067 26.3358 5.32618 26.3358 5.25074C26.3358 5.1753 26.3269 5.11243 26.3092 5.06213H22.1262C21.8598 5.16272 21.6466 5.31361 21.4868 5.51479L21.3269 5.9926C20.8828 7.14941 19.7194 8.93491 17.8366 11.3491C17.4636 11.6844 17.0285 11.8521 16.5311 11.8521Z"
		/>
</svg>
