<svg width="60" height="60" viewBox="0 0 60 60" xmlns="http://www.w3.org/2000/svg">
	<path
		d="M36.5237 24.6623C36.5237 25.2616 36.0369 25.7474 35.4364 25.7474C34.8359 25.7474 34.3491 25.2616 34.3491 24.6623C34.3491 24.063 34.8359 23.5771 35.4364 23.5771C36.0369 23.5771 36.5237 24.063 36.5237 24.6623Z" />
	<path
		d="M25.6506 24.6623C25.6506 25.2616 25.1638 25.7474 24.5633 25.7474C23.9628 25.7474 23.476 25.2616 23.476 24.6623C23.476 24.063 23.9628 23.5771 24.5633 23.5771C25.1638 23.5771 25.6506 24.063 25.6506 24.6623Z" />
	<path
		d="M25.6506 37.6837C25.6506 38.283 25.1638 38.7688 24.5633 38.7688C23.9628 38.7688 23.476 38.283 23.476 37.6837C23.476 37.0844 23.9628 36.5985 24.5633 36.5985C25.1638 36.5985 25.6506 37.0844 25.6506 37.6837Z" />
	<path
		d="M31.0872 39.8539C31.0872 40.4532 30.6004 40.939 29.9999 40.939C29.3994 40.939 28.9126 40.4532 28.9126 39.8539C28.9126 39.2546 29.3994 38.7688 29.9999 38.7688C30.6004 38.7688 31.0872 39.2546 31.0872 39.8539Z" />
	<path
		d="M22.3887 31.1073C22.3887 31.7066 21.9019 32.1924 21.3014 32.1924C20.7009 32.1924 20.2141 31.7066 20.2141 31.1073C20.2141 30.508 20.7009 30.0221 21.3014 30.0221C21.9019 30.0221 22.3887 30.508 22.3887 31.1073Z" />
	<path
		d="M39.7855 31.1073C39.7855 31.7066 39.2987 32.1924 38.6982 32.1924C38.0977 32.1924 37.6109 31.7066 37.6109 31.1073C37.6109 30.508 38.0977 30.0221 38.6982 30.0221C39.2987 30.0221 39.7855 30.508 39.7855 31.1073Z" />
	<path
		d="M36.5237 37.6837C36.5237 38.283 36.0369 38.7688 35.4364 38.7688C34.8359 38.7688 34.3491 38.283 34.3491 37.6837C34.3491 37.0844 34.8359 36.5985 35.4364 36.5985C36.0369 36.5985 36.5237 37.0844 36.5237 37.6837Z" />
	<path
		d="M29.2404 23.2733C29.2404 22.8418 29.5902 22.492 30.0217 22.492C30.4532 22.492 30.803 22.8418 30.803 23.2733V31.455C30.803 31.8985 30.4434 32.2581 29.9999 32.2581C29.5804 32.2581 29.2404 31.9181 29.2404 31.4987V23.2733Z" />
	<path fill-rule="evenodd" clip-rule="evenodd"
		d="M36.3707 42.5866L38.1965 44.4615C38.4641 44.7363 38.9056 44.7363 39.1732 44.4615C39.4309 44.1969 39.4309 43.7751 39.1732 43.5105L37.8165 42.1173C37.3905 41.6799 37.455 40.9679 37.9142 40.5657C40.5559 38.2519 42.2322 34.8012 42.2322 30.9469C42.2322 24.2336 37.1469 18.7452 30.7322 18.3546V16.8324H36.9822C37.3964 16.8324 37.7322 16.4966 37.7322 16.0824C37.7322 15.6682 37.3964 15.3324 36.9822 15.3324H30.7322H29.2322H22.9822C22.568 15.3324 22.2322 15.6682 22.2322 16.0824C22.2322 16.4966 22.568 16.8324 22.9822 16.8324H29.2322V18.3568C22.8342 18.7655 17.7678 24.246 17.7678 30.9469C17.7678 34.7612 19.4095 38.1801 22.0038 40.4932C22.4566 40.8968 22.5171 41.6032 22.0939 42.0378L20.6597 43.5105C20.402 43.7751 20.402 44.1969 20.6597 44.4615C20.9273 44.7363 21.3688 44.7363 21.6364 44.4615L23.516 42.5314C23.8346 42.2042 24.3326 42.1385 24.7424 42.34C26.3351 43.1231 28.1179 43.5614 30 43.5614C31.8412 43.5614 33.5874 43.1419 35.1537 42.3905C35.562 42.1946 36.0547 42.2622 36.3707 42.5866ZM40.873 30.9469C40.873 37.1396 36.005 42.1598 30 42.1598C23.995 42.1598 19.127 37.1396 19.127 30.9469C19.127 24.7542 23.995 19.734 30 19.734C36.005 19.734 40.873 24.7542 40.873 30.9469Z" />
</svg>
