<svg width="60" height="60" viewBox="0 0 60 60" xmlns="http://www.w3.org/2000/svg">
	<path fill-rule="evenodd" clip-rule="evenodd"
		d="M36.1173 15.0761C36.491 14.9214 36.9211 15.0069 37.2071 15.2929C38.1156 16.2014 39.3038 18.1706 40.2659 21.2108C41.2373 24.2804 42 28.5081 42 34C42 34.5523 41.5523 35 41 35H37.5V44C37.5 44.5523 37.0523 45 36.5 45C35.9477 45 35.5 44.5523 35.5 44V16C35.5 15.5956 35.7436 15.2309 36.1173 15.0761ZM37.5 33H39.9911C39.9053 28.1836 39.2051 24.4875 38.3591 21.8142C38.0807 20.9346 37.7885 20.1715 37.5 19.519V33Z" />
	<path
		d="M24.5 16C24.5 15.4477 24.0523 15 23.5 15C22.9477 15 22.5 15.4477 22.5 16V24.4097C21.6181 24.2374 21.0598 23.8407 20.7009 23.4166C20.192 22.8152 20 22.0569 20 21.5V16C20 15.4477 19.5523 15 19 15C18.4477 15 18 15.4477 18 16V21.5C18 22.4431 18.308 23.6848 19.1741 24.7084C19.9137 25.5825 21.0074 26.2344 22.5 26.4353V44C22.5 44.5523 22.9477 45 23.5 45C24.0523 45 24.5 44.5523 24.5 44V26.4352C25.9925 26.2344 27.0863 25.5825 27.8259 24.7084C28.692 23.6848 29 22.4431 29 21.5V16C29 15.4477 28.5523 15 28 15C27.4477 15 27 15.4477 27 16V21.5C27 22.0569 26.808 22.8152 26.2991 23.4166C25.9402 23.8407 25.3819 24.2373 24.5 24.4097V16Z" />
</svg>
