<svg width="60" height="60" viewBox="0 0 60 60" xmlns="http://www.w3.org/2000/svg">
	<path
		d="M42.3746 16.767C42.2743 16.317 41.8956 16 41.4634 16H41.4577C36.5199 16.033 24.5124 16.916 19.6646 24.38C17.1465 28.258 16.9299 33.293 19.0206 39.345C19.0365 39.392 19.0693 39.424 19.0909 39.467C18.3437 41.44 18.054 42.753 18.0465 42.79C17.9377 43.33 18.2612 43.862 18.7674 43.978C18.8331 43.993 18.8987 44 18.9643 44C19.3965 44 19.7856 43.679 19.8802 43.21C19.8999 43.108 22.2887 32.837 30.7337 26.832C31.1649 26.526 31.2812 25.905 30.9934 25.445C30.7056 24.985 30.1243 24.86 29.6931 25.168C24.9043 28.573 21.9549 33.176 20.2206 36.824C18.9793 32.246 19.3046 28.447 21.2068 25.519C24.9502 19.755 33.8293 18.365 39.189 18.071C38.0359 19.872 36.7759 23.174 36.7759 29C36.7759 32.12 35.9462 34.522 34.3112 36.14C31.6899 38.731 27.4318 38.974 24.3174 38.724C23.7999 38.679 23.3509 39.095 23.3115 39.646C23.2721 40.196 23.6593 40.676 24.1749 40.718C24.7984 40.769 25.464 40.8 26.1559 40.8C29.3265 40.8 33.0249 40.137 35.5852 37.606C37.6196 35.595 38.6509 32.7 38.6509 29.001C38.6509 19.902 41.8665 17.905 41.8824 17.896C42.2724 17.687 42.4768 17.219 42.3746 16.767Z" />
</svg>
