<svg width="60" height="60" viewBox="0 0 60 60" xmlns="http://www.w3.org/2000/svg">
	<path
		d="M36.2761 32.9726C34.5701 32.9726 33.1876 34.4509 33.1876 36.2736C33.1876 38.0978 34.5705 39.5756 36.2761 39.5756C37.9817 39.5756 39.3641 38.0973 39.3641 36.2736C39.3641 34.4504 37.9812 32.9726 36.2761 32.9726ZM36.2761 37.9859C35.392 37.9859 34.6752 37.2196 34.6752 36.2746C34.6752 35.3286 35.392 34.5628 36.2761 34.5628C37.1601 34.5628 37.8774 35.3286 37.8774 36.2746C37.8774 37.2196 37.1601 37.9859 36.2761 37.9859Z" />
	<path
		d="M27.1067 14.4894C25.3463 14.4894 23.9194 16.0142 23.9194 17.8965C23.9194 19.7788 25.3458 21.3031 27.1067 21.3031C28.8675 21.3031 30.294 19.7792 30.294 17.8965C30.2935 16.0137 28.8671 14.4894 27.1067 14.4894ZM27.1062 19.9652C26.0373 19.9652 25.1709 19.0391 25.1709 17.896C25.1709 16.7533 26.0373 15.8267 27.1062 15.8267C28.1756 15.8267 29.042 16.7533 29.042 17.896C29.042 19.0391 28.1756 19.9652 27.1062 19.9652Z" />
	<path
		d="M34.0001 24.2621C34.0001 24.2621 37.0401 23.4237 40.178 25.7559C41.0851 26.5159 41.9433 27.0923 41.3303 27.8785C40.9868 28.219 40.6932 28.5353 39.6143 27.3544C38.5603 26.5944 36.8946 25.4561 34.0001 25.9129C32.8722 26.1493 32.0385 26.4636 30.4444 28.062C28.8507 29.6605 26.4723 30.7871 23.947 30.5513C21.4218 30.3158 20.0982 29.2933 18.7007 28.0093C18.4067 27.5898 18.4067 27.1442 18.578 26.8821C18.7492 26.6201 19.4112 26.358 19.7792 26.7508C20.1471 27.1442 21.8876 28.7164 23.6036 28.8211C25.32 28.9257 27.0364 29.0308 29.3406 26.8555C31.6465 24.6816 32.7988 24.5242 34.0001 24.2621Z" />
	<path
		d="M44.1455 41.315V22.6569C44.1455 22.0785 43.7717 22.0069 43.6217 22.0015H43.116C42.6226 22.0015 42.5795 22.5581 42.5782 22.7402C42.5782 22.7581 42.5782 22.7731 42.5782 22.7911V22.8008C42.5795 26.4093 42.5872 41.0539 42.5764 41.3407C42.5641 41.6686 42.5029 42.5071 41.7553 43.2278C40.9469 43.9229 40.1376 43.8309 40.1376 43.8309C40.1376 43.8309 19.9604 43.8309 19.4824 43.8042C19.1027 43.7388 18.4407 43.5945 17.8765 42.7953C17.3128 41.9961 17.4234 40.9479 17.4234 40.9479V22.8143C17.4234 21.9759 16.7491 22.002 16.7491 22.002H16.4419C15.9059 22.002 15.8565 22.5901 15.8538 22.7785C15.8538 26.2403 15.8538 40.1462 15.8538 41.3155C15.8538 42.6524 16.3073 43.7132 17.4016 44.6524C18.4955 45.5911 19.7765 45.5087 19.7765 45.5087C19.7765 45.5087 39.5001 45.5087 40.3583 45.5063C41.2165 45.5039 42.3439 45.0898 43.2742 43.951C44.2035 42.8122 44.1455 41.315 44.1455 41.315Z" />
	<path
		d="M23.7268 32.1099C22.4331 32.1099 21.3855 33.2298 21.3855 34.6127C21.3855 35.9951 22.4331 37.1155 23.7268 37.1155C25.0205 37.1155 26.0681 35.9951 26.0681 34.6127C26.0681 33.2303 25.0205 32.1099 23.7268 32.1099Z" />
</svg>
