<svg xmlns="http://www.w3.org/2000/svg" xmlns:xlink="http://www.w3.org/1999/xlink"><symbol id="logotype" viewBox="0 0 102 19">
<path d="M1.28133 16.5385C0.386396 15.2762 -0.0578584 13.7627 0.0168559 12.2308V5.84615C-0.0915196 4.29774 0.324917 2.75746 1.2023 1.46154C2.07163 0.461538 3.41513 0 5.39088 0C7.36662 0 8.6311 0.461539 9.42139 1.30769C10.2794 2.37941 10.7015 3.72136 10.6068 5.07692V6.61539H6.73438V4.84615C6.76566 4.32289 6.68492 3.799 6.49729 3.30769C6.397 3.10938 6.23805 2.9448 6.04088 2.83513C5.8437 2.72547 5.61733 2.67572 5.39088 2.69231C4.83767 2.69231 4.44252 2.84615 4.28446 3.23077C4.10568 3.77733 4.02546 4.34988 4.04737 4.92308V13.1538C4.00564 13.71 4.11464 14.267 4.36349 14.7692C4.52155 15.1538 4.9167 15.3077 5.46991 15.3077C6.02312 15.3077 6.33923 15.1538 6.49729 14.7692C6.67698 14.2494 6.75733 13.7019 6.73438 13.1538V11.3077H10.6068V12.8462C10.6872 14.2238 10.2676 15.5852 9.42139 16.6923C8.6311 17.6154 7.28759 18.0769 5.39088 18.0769C3.49416 18 2.07163 17.5385 1.28133 16.5385Z"/>
<path d="M15.2696 0.230713H19.7743L23.0936 17.7692H19.4582L18.826 14.0769H16.218L15.5857 17.7692H11.8713L15.2696 0.230713ZM18.5098 11.7692L17.5615 4.92302L16.6131 11.7692H18.5098Z"/>
<path d="M25.8595 3.15379H23.1725V0.230713H32.577V3.07687H29.89V17.7692H25.8595V3.15379Z"/>
<path d="M46.7235 0.230713V2.07687H42.2188V7.8461H45.8541V9.61533H42.2188V16.0769H46.7235V17.8461H39.6898V0.230713H46.7235Z"/>
<path d="M48.7782 0.230713H50.5169L55.6538 11.8461V0.230713H57.7086V17.7692H56.128L50.912 5.76917V17.7692H48.7782V0.230713Z"/>
<path d="M60.0795 0.230713H67.0341V2.07687H62.5294V7.8461H66.1648V9.61533H62.5294V16.0769H67.0341V17.8461H60.0795V0.230713Z"/>
<path d="M72.7242 0.2307C74.1542 0.134548 75.5754 0.514283 76.7547 1.30762C77.624 1.99993 78.0191 3.2307 78.0191 4.84608C78.0191 7.07685 77.3079 8.46147 75.8063 8.92301L78.3353 17.6922H75.8853L73.5145 9.46147H71.5387V17.6922H69.0098V0.2307H72.7242ZM72.5661 7.76916C73.3808 7.83451 74.1929 7.61645 74.858 7.15378C75.3321 6.76916 75.5692 5.99993 75.5692 4.84608C75.5911 4.27289 75.5109 3.70033 75.3321 3.15378C75.1543 2.76159 74.8488 2.43723 74.4628 2.2307C73.9185 1.98927 73.321 1.88353 72.7242 1.92301H71.6177V7.69224H72.5661V7.76916Z"/>
<path d="M81.1803 16.4614C80.3588 15.1165 79.9732 13.5616 80.0739 11.9999V6.15374C80.0544 5.039 80.1873 3.92669 80.4691 2.84605C80.7335 2.03852 81.2605 1.33658 81.9706 0.846049C82.853 0.337645 83.871 0.0966264 84.8947 0.153741C86.5544 0.153741 87.7398 0.538357 88.4511 1.38451C89.2693 2.50181 89.6606 3.86227 89.5575 5.23067V5.84605H87.1866V5.30759C87.1902 4.66335 87.1373 4.02 87.0285 3.38451C86.9619 2.98293 86.7346 2.62338 86.3963 2.38451C85.9521 2.10072 85.4249 1.96568 84.8947 1.9999C84.3281 1.96455 83.7672 2.12833 83.3141 2.46143C83.1283 2.61391 82.9763 2.80171 82.8676 3.01334C82.7589 3.22497 82.6957 3.45597 82.6819 3.6922C82.5777 4.37988 82.5249 5.07401 82.5238 5.76913V12.3076C82.4656 13.3037 82.6273 14.3005 82.998 15.2307C83.3141 15.846 83.9464 16.0768 84.8947 16.0768C85.2692 16.1222 85.6491 16.0588 85.9866 15.8946C86.3241 15.7303 86.6041 15.4726 86.7915 15.1537C87.209 14.181 87.398 13.1298 87.3447 12.0768V10.8461H85.0528V9.07682H89.6365V17.7691H88.0559L87.8188 15.7691C87.6117 16.4394 87.1802 17.023 86.5931 17.4272C86.006 17.8314 85.2969 18.033 84.5786 17.9999C83.9256 18.0373 83.2733 17.9163 82.6802 17.6478C82.0871 17.3793 81.5717 16.9716 81.1803 16.4614Z"/>
<path d="M94.6945 11.6153L90.822 0.307617H93.1929L95.959 8.76916L98.646 0.307617H101.017L97.1444 11.6153V17.7692H94.7735V11.6153H94.6945Z"/>
</symbol><symbol id="mascot-full">
	<path d="M56.76 13.34l8.46-9.37L63.7.5l-8.15 10.86 1.22 1.98zM68.2 13.54l-5.55 4.08-.64-3.01 5.4-4.78.78 3.71zM59.92 49.47l6.13 3.16 3.01-2.33-6.69-2.72-2.45 1.9zM5.02 3.09L1.95 6.42l11.14 7.86 1.22-2.26-9.29-8.93zM7.38 16.65l-4.7-3.1-2.4 3.83 5.15 2.38 1.95-3.11zM9.36 55.95l4.55-3.32 2.27 2.88-4.02 3.99-2.8-3.55z" fill="#FDC305"/>
	<use href="#mascot-medium" width="70.16" height="56.85" y="2.65"/>
</symbol><symbol id="mascot-head" viewBox="0 0 25 30">
	<path d="M22.8 17.82a88.7 88.7 0 00-1.4-16.34s-.15-1.29-.87-.24c-.59 1.26-1 2.59-1.2 3.96a71.22 71.22 0 00-12.77.33C5.74 2.81 4.35 1.58 3.68 1.9c-.67.33-.75 3.25-.75 3.25l-.33 14c6.7-.92 13.44-1.36 20.2-1.33zM12.9 22.12c-.12.23-.27.43-.46.6-.28.22-.63.35-1 .37-.55.05-1.1-.1-1.53-.43-.2-.12-.38-.27-.53-.45a1 1 0 00-.36-.25s.75 4.07 2.56 4.72c1.82.65 2.16-.75 2.2-1.13a5.53 5.53 0 00-.81-3.2c0-.18 0-.18-.03-.18 0 0-.02 0-.04-.05z" fill="#F06351"/>
	<path d="M17.67 24.76a57.03 57.03 0 015.08-5.15s.71-.33 1.85-.7a6.3 6.3 0 01-1.14 1.98 57.25 57.25 0 01-5.98 5.84c-1.8 1.4-4.21 3.1-5.07 3.24A22.54 22.54 0 01.45 21.23l2 .11a31.7 31.7 0 003.12 2.97c2.06 1.67 5.19 3.8 5.19 3.8s1.4.97 1.62 1.5a31.68 31.68 0 005.3-4.85z" fill="#F06351"/>
	<path d="M9.54 15.12c-.35-.24-.66-.45-.63-.4.47.6 1.01 1.13 1.63 1.58h-.3l-.42-.03c-.29-.03-.56-.06-.5.03.07.14.63.26.99.26s.62-.17.62-.34-.2-.35-.61-.58c-.19-.11-.5-.33-.78-.52zM15.3 16.16a30.8 30.8 0 001.09-1.32c.08-.11.05 0 .05 0l-.85 1.26c.24-.04.57-.07.8-.09l.2-.02c.19-.02.23.12.12.18-.4.12-.8.22-1.22.28-.36.05-.28-.23-.19-.29zM13.26 20.88c.46-.2.84-.55 1.08-1 .28-.65 0-.9-.43-.98-.6-.11-1.23.01-1.75.33-.39.37-.34.73 0 1 .34.26.7.47 1.1.65zM9.89 22.78c.4.24.85.4 1.31.47a2.27 2.27 0 001.7-.93 1.54 1.54 0 001.11.72c.6.04 1.22-.42 1.89-1.4a.14.14 0 00-.04-.2.14.14 0 00-.2.05c-.57.86-1 1.31-1.63 1.27-.61-.04-1-.79-1-.79l-.1-.21-.13.18a2.1 2.1 0 01-1.64 1 3.23 3.23 0 01-2.1-1.3.14.14 0 00-.2 0 .15.15 0 000 .2c.28.38.62.7 1.03.94z" fill="#111"/>
</symbol><symbol id="mascot-medium">
	<path d="M53 19.61a22.36 22.36 0 00-7.09-9.12 22.62 22.62 0 00-31.48 4.02 22.24 22.24 0 00-3.12 22.03 22.35 22.35 0 006.96 9.22 22.61 22.61 0 0010.66 4.56 99.44 99.44 0 01-1.49-5.98 28.5 28.5 0 004.19 2.23s.1 1.88.24 3.98c1.57.03 3.15-.1 4.69-.4a1.85 1.85 0 010-.67c.25-1.63.96-4.57 1.1-6.46a13.3 13.3 0 002.55-3.24l-.05.38c-.49 3.72-1.5 7.69-2.12 8.79-.2.36-.44.7-.73 1a22.63 22.63 0 0014.92-11.57 22.22 22.22 0 00.76-18.77zm-1.3 3.31c-.39.37-1.19.63-1.32-.5a29.94 29.94 0 01-.16-1.93s-1.7-3-2.34-3.03c-.63-.04-5.12 3.03-6.3 4.36-1.04 1.13-1.24 1.05-1.24 3.03 0 1.49.2 7.12.09 11.43l-7.17 1.9a56.68 56.68 0 01-6.86 1.5l-.88-5.09h-.12L23.14 23.1s-3.35-1.25-4.58-1.6a3.33 3.33 0 00-3.52.56 4.42 4.42 0 00-1.52 3.35c.19.41.33.83.42 1.27.05.42-1.05.37-1.76.37-.7 0-.8-1.25-.25-2.73.43-1.13.97-2.22 1.6-3.26.47-.92 1.09-1.77 1.82-2.52 0 0 .12-.3 1.1-.2.97.08 6.4.37 6.4.37l.04-1.98c5.9-.81 11.85-1.2 17.8-1.17v1.6a19.94 19.94 0 017.16-1.75.8.8 0 01.68.34c.3.38 2.12 2.62 2.33 2.94.59.84 1.13 1.71 1.6 2.62a5.42 5.42 0 01-.76 1.6v.01z" fill="#FDC305"/>
	<path d="M40.22 39.78c.11-.93.17-2.17.2-3.54l-7.16 1.9a56.68 56.68 0 01-6.86 1.54l.98 4.36c0 .1 0 .19.06.28a28.5 28.5 0 004.19 2.23c2.12-1.01 4.15-2.22 6.05-3.6V43c1-.94 1.86-2.02 2.54-3.22z" fill="#F06351"/>
	<path d="M32.22 32.09c1.82 0 3.3-1.47 3.3-3.27 0-1.81-1.48-3.27-3.3-3.27a3.28 3.28 0 00-3.3 3.27c0 1.8 1.48 3.27 3.3 3.27z" fill="#FDC305"/>
	<path d="M36.6 26.16l-2.76 1.14 1.01-4.91-6.6 8.51 2.76-1.14L30 34.68l6.6-8.52zm-6.5 3.34l3.65-4.72-.7 3.49 1.75-.72-3.68 4.73.7-3.49-1.72.7zM28.86 28.21c.55 0 .99-.43.99-.97a.98.98 0 00-.99-.98.98.98 0 00-.98.98c0 .54.44.97.98.97zM34.6 31.76c.38 0 .7-.31.7-.7a.7.7 0 00-.7-.68.7.7 0 00-.7.69c0 .38.31.69.7.69zM35.44 29.86a.3.3 0 00.31-.3.3.3 0 00-.3-.3.3.3 0 00-.32.3c0 .17.14.3.31.3z" fill="#111"/>
	<use href="#mascot-head" width="21.31" height="25.71" x="20.73" y="0.57"/>
	<path d="M50.87 18.7l-.88-1.12a38.4 38.4 0 0112.04 9.37c-9.83-2.19-10.07 6.35-10.07 6.35-7.13-3.28-6.87 2.98-6.87 2.98-.7-1.03-3.04-1.46-4.64-1.64.03-2.7-.03-5.63-.07-7.64l-.04-2.15c0-1.73.15-1.89.88-2.65l.35-.38c1.19-1.33 5.68-4.4 6.32-4.36.63.03 2.33 3.03 2.33 3.03s.05.75.18 1.88.93.88 1.32.5c.33-.47.59-1 .76-1.55-.49-.9-1.02-1.77-1.61-2.61zM18.56 21.5c1.23.35 4.58 1.6 4.58 1.6l2.4 11.5a5.36 5.36 0 00-3.86 1.13c-.84.61-1.62 1.3-2.33 2.06l-.47-3.37s-.13-1.97-2-1.84c-1.66.2-3.32.52-4.94.96 0 0 .22-3.6-4.4-4.07-2.39-.28-4.8-.35-7.2-.2 0 0 8.4-5.73 13.19-8.2a19.83 19.83 0 00-1.6 3.25c-.56 1.48-.45 2.73.25 2.73h.19c.7 0 1.61.01 1.57-.37a6.2 6.2 0 00-.42-1.27 4.4 4.4 0 011.52-3.35 3.32 3.32 0 013.52-.55z" fill="#F06351"/>
</symbol><symbol id="mascot-small">
	<path id="back-close-up" d="M27.74 25.06c-1.16 1.28-1.39 1.2-1.39 3.45v9.18a16.64 16.64 0 007.47-13.86 17.3 17.3 0 00-.32-3.1c-2.07 1.23-4 2.68-5.76 4.33zM6.86 26.55s-3.79-1.44-5.19-1.83a8.53 8.53 0 00-1.17-.28 16.65 16.65 0 008.68 14L6.86 26.55zM6.61 21.41v-2.6l.94-8.59A16.66 16.66 0 00.73 21.08l5.88.33zM26.78 17.82s0 1.21-.06 1.82a25.52 25.52 0 016-1.82 16.67 16.67 0 00-6.83-8.2l.9 8.2z" fill="#FDC305"/>
	<use href="#mascot-head" width="24.15" height="29.14" x="3.95" y="0.83"/>
</symbol></svg>