<svg xmlns="http://www.w3.org/2000/svg" xmlns:xlink="http://www.w3.org/1999/xlink"><symbol id="htmlacademy" viewBox="0 0 27 34">
	<path d="M13.6426 0.0157537L13.5 0L0 1.40733V26.0129L13.5 34L27 26.0129V1.40733L13.6426 0.0157537ZM25.2344 25.0151L13.5 31.9573L1.76561 25.0151V14.9293L13.4507 21.8451L13.4701 23.0984L5.45351 18.3548L5.44295 19.5801L13.4894 24.3885L13.5088 25.675L5.46408 20.9174L5.45351 22.1427L13.5 26.9511L21.6239 22.1182V20.8929V16.909L25.2432 14.7595L25.2344 25.0151ZM25.2344 13.4519L22.0147 15.3319L20.5325 16.2071L13.4666 12.0201L13.456 13.2454L19.4957 16.818L19.4429 16.8495L19.3126 16.9247L18.4536 17.4166L13.4666 14.4689L13.456 15.6942L17.3921 18.0222L16.4591 18.6314L16.438 18.6436L13.4666 16.902L13.456 18.1273L15.4029 19.2615L13.4155 20.4483L1.7973 13.5762L13.4349 6.61831L25.2344 13.4519ZM25.2344 12.2266L13.4401 5.31075L1.76561 12.2196V2.9897L13.5 1.76442L25.2344 2.9897V12.2266Z"/>
</symbol><symbol id="telegram" viewBox="0 0 28 22">
	<path fill-rule="evenodd" clip-rule="evenodd" d="M23.4608 3.15291C23.6393 3.30222 23.7255 3.5349 23.6872 3.76448L21.0611 19.5214C21.0244 19.7411 20.8789 19.9273 20.6745 20.0159C20.47 20.1045 20.2346 20.0833 20.0493 19.9597L12.1708 14.7074C12.0177 14.6054 11.9145 14.4437 11.8862 14.2619C11.858 14.08 11.9074 13.8947 12.0223 13.751L14.633 10.4877L10.273 13.3944C10.077 13.525 9.82597 13.5407 9.61524 13.4353L4.36293 10.8092C4.12769 10.6915 3.98535 10.4449 4.0012 10.1824C4.01705 9.91983 4.18804 9.6921 4.43573 9.60364L22.8188 3.03826C23.038 2.95998 23.2822 3.00359 23.4608 3.15291ZM6.32626 10.3228L9.86168 12.0905L17.4231 7.0495C17.6925 6.86994 18.0525 6.91349 18.2712 7.1521C18.49 7.3907 18.5022 7.75314 18.3 8.00591L13.495 14.0121L19.9328 18.3039L22.2083 4.65058L6.32626 10.3228Z"/>
</symbol><symbol id="vk" viewBox="0 0 28 22">
	<path d="M0.518524 5.33876C0.518524 4.48373 1.03363 4.02268 2.06383 3.95562L6.03368 3.98077C6.30011 3.98077 6.47773 4.10651 6.56654 4.35799C6.97507 5.61538 7.43245 6.70094 7.93867 7.61465C8.44489 8.52835 9.10653 9.58038 9.92359 10.7707C9.99464 10.9216 10.1101 10.997 10.27 10.997C10.3943 10.997 10.492 10.9384 10.563 10.821L10.643 10.5444L10.6696 6.19379C10.6696 5.89201 10.5941 5.69083 10.4431 5.59024C10.2922 5.48964 10.0124 5.4142 9.60387 5.36391C9.28415 5.31361 9.12429 5.12919 9.12429 4.81065C9.12429 4.74359 9.13317 4.69329 9.15094 4.65976C9.52394 3.57002 10.5897 3.02515 12.3481 3.02515L13.8401 3C14.5151 3 15.0746 3.15927 15.5187 3.47781C15.9627 3.79635 16.1848 4.29931 16.1848 4.98669V10.6953C16.3091 10.7791 16.4245 10.821 16.5311 10.821C16.7975 10.821 17.0285 10.6701 17.2238 10.3683C19.1777 7.78649 20.2345 6.05966 20.3944 5.18787C20.3944 5.1711 20.4121 5.12919 20.4477 5.06213C20.572 4.81065 20.7763 4.5927 21.0605 4.40828C21.3447 4.22387 21.5933 4.09813 21.8065 4.03107C21.8775 3.99753 21.9575 3.98077 22.0463 3.98077H26.176L26.4424 4.00592C26.7976 4.00592 27.073 4.16519 27.2683 4.48373C27.3394 4.58432 27.3882 4.69329 27.4149 4.81065C27.4415 4.92801 27.4593 5.04536 27.4682 5.16272C27.477 5.28008 27.4815 5.34714 27.4815 5.36391V5.53994C27.3572 6.22732 27.0419 6.9608 26.5357 7.74038C26.0294 8.51997 25.3856 9.36243 24.604 10.2678C23.8225 11.1731 23.334 11.7682 23.1386 12.0533C22.9788 12.2544 22.8988 12.4389 22.8988 12.6065C22.8988 12.7406 22.9699 12.8915 23.112 13.0592L27.0019 17.6864C27.2151 17.9546 27.3216 18.248 27.3216 18.5666C27.3216 18.9522 27.1618 19.2707 26.8421 19.5222C26.5223 19.7737 26.1404 19.9162 25.6964 19.9497L25.2435 19.9749H21.1937C21.1759 19.9749 21.1404 19.979 21.0871 19.9874C21.0338 19.9958 20.9983 20 20.9805 20C20.5898 20 20.2256 19.8407 19.8882 19.5222C19.7638 19.3881 18.929 18.3989 17.3837 16.5547C17.2949 16.4374 17.1706 16.3284 17.0107 16.2278C16.9396 16.4961 16.8464 16.8817 16.7309 17.3846C16.6155 17.8876 16.5311 18.248 16.4778 18.466L16.3979 18.8935C16.2203 19.4803 15.8473 19.8323 15.2789 19.9497L14.9059 19.9749H12.2948C10.8206 19.9749 9.35076 19.3378 7.88538 18.0636C6.42 16.7894 5.10116 15.1423 3.92886 13.122C2.75656 11.1018 1.66418 8.75049 0.65174 6.06805C0.56293 5.8501 0.518524 5.607 0.518524 5.33876ZM16.5311 11.8521C16.1581 11.8521 15.8206 11.7557 15.5187 11.5629C15.2167 11.3701 15.0657 11.106 15.0657 10.7707V4.98669C15.0657 4.65138 14.9769 4.41248 14.7993 4.26997C14.6217 4.12747 14.3108 4.05621 13.8668 4.05621L12.3481 4.10651C11.5844 4.10651 11.0071 4.23225 10.6163 4.48373C11.3978 4.8358 11.7886 5.40582 11.7886 6.19379V10.6198C11.7531 11.039 11.5755 11.3868 11.2558 11.6635C10.936 11.9401 10.5808 12.0784 10.19 12.0784C9.65716 12.0784 9.24863 11.8353 8.96443 11.3491C7.57898 9.37081 6.54878 7.4931 5.87382 5.71598L5.63403 5.06213L2.09048 5.03698C1.85957 5.03698 1.73079 5.04956 1.70415 5.0747C1.67751 5.09985 1.66418 5.1711 1.66418 5.28846C1.66418 5.43935 1.68195 5.59862 1.71747 5.76627L2.27698 7.17456C3.769 10.8126 5.3898 13.6795 7.13937 15.7751C8.88894 17.8708 10.6074 18.9186 12.2948 18.9186H14.9592C15.0657 18.9186 15.1457 18.8893 15.199 18.8306C15.2522 18.7719 15.2966 18.6588 15.3322 18.4911L15.3855 18.2396L15.8917 16.0266C16.0338 15.7249 16.1581 15.5237 16.2647 15.4231C16.4601 15.2387 16.691 15.1465 16.9574 15.1465C17.3837 15.1465 17.8189 15.3895 18.2629 15.8757L20.5276 18.5917C20.6697 18.8097 20.8207 18.9186 20.9805 18.9186H25.3767C25.9095 18.9186 26.176 18.7929 26.176 18.5414C26.176 18.4576 26.1493 18.3738 26.096 18.2899L22.2328 13.7382C21.9308 13.3861 21.7798 13.0089 21.7798 12.6065C21.7798 12.2041 21.9219 11.8185 22.2061 11.4497C22.437 11.1144 22.8855 10.557 23.5516 9.77737C24.2177 8.99778 24.7994 8.26849 25.2967 7.5895C25.7941 6.9105 26.1227 6.29438 26.2825 5.74112L26.3625 5.4142C26.3447 5.38067 26.3358 5.32618 26.3358 5.25074C26.3358 5.1753 26.3269 5.11243 26.3092 5.06213H22.1262C21.8598 5.16272 21.6466 5.31361 21.4868 5.51479L21.3269 5.9926C20.8828 7.14941 19.7194 8.93491 17.8366 11.3491C17.4636 11.6844 17.0285 11.8521 16.5311 11.8521Z"/>
</symbol><symbol id="youtube" viewBox="0 0 28 22">
	<path d="M17.8509 10.7927L12.6145 7.30184C12.5159 7.23691 12.4016 7.19985 12.2837 7.19459C12.1657 7.18934 12.0486 7.21608 11.9446 7.27198C11.8406 7.32789 11.7537 7.41087 11.693 7.51215C11.6324 7.61343 11.6002 7.72924 11.6 7.84729V14.8291C11.6001 14.9481 11.6327 15.0648 11.6942 15.1667C11.7557 15.2686 11.8438 15.3518 11.9491 15.4073C12.0524 15.4631 12.1691 15.4895 12.2864 15.4837C12.4037 15.478 12.5172 15.4402 12.6145 15.3746L17.8509 11.8837C17.9409 11.824 18.0148 11.7429 18.0658 11.6477C18.1169 11.5526 18.1436 11.4462 18.1436 11.3382C18.1436 11.2302 18.1169 11.1239 18.0658 11.0287C18.0148 10.9335 17.9409 10.8525 17.8509 10.7927ZM12.9091 13.6073V9.06911L16.3127 11.3382L12.9091 13.6073ZM25.3891 5.04366C25.2942 4.67547 25.1131 4.33511 24.8609 4.05061C24.6086 3.76611 24.2924 3.54561 23.9382 3.40729C20.2182 1.9782 14.2509 2.00002 14 2.00002C13.7491 2.00002 7.78182 1.9782 4.06182 3.40729C3.70764 3.54561 3.3914 3.76611 3.13914 4.05061C2.88689 4.33511 2.70584 4.67547 2.61091 5.04366C2.32727 6.11275 2 8.07638 2 11.3382C2 14.6 2.32727 16.5637 2.61091 17.6327C2.70584 18.0009 2.88689 18.3413 3.13914 18.6258C3.3914 18.9103 3.70764 19.1308 4.06182 19.2691C7.78182 20.6982 13.7491 20.6764 14 20.6764H14.0764C14.8291 20.6764 20.3927 20.6327 23.9382 19.2691C24.2924 19.1308 24.6086 18.9103 24.8609 18.6258C25.1131 18.3413 25.2942 18.0009 25.3891 17.6327C25.6727 16.5637 26 14.6 26 11.3382C26 8.07638 25.6727 6.11275 25.3891 5.04366ZM24.1236 17.3055C24.0807 17.472 23.999 17.6259 23.8853 17.7548C23.7715 17.8838 23.6289 17.984 23.4691 18.0473C19.9782 19.3891 14.0655 19.3673 14 19.3673C13.9345 19.3673 8.02182 19.3891 4.53091 18.0473C4.37107 17.984 4.22846 17.8838 4.11471 17.7548C4.00096 17.6259 3.91929 17.472 3.87636 17.3055C3.61455 16.3018 3.30909 14.4582 3.30909 11.3382C3.30909 8.2182 3.61455 6.37457 3.87636 5.37093C3.91929 5.20445 4.00096 5.05047 4.11471 4.92156C4.22846 4.79264 4.37107 4.69243 4.53091 4.62911C8.02182 3.28729 13.9345 3.30911 14 3.30911C14.0655 3.30911 19.9782 3.28729 23.4691 4.62911C23.6289 4.69243 23.7715 4.79264 23.8853 4.92156C23.999 5.05047 24.0807 5.20445 24.1236 5.37093C24.3855 6.37457 24.6909 8.2182 24.6909 11.3382C24.6909 14.4582 24.3855 16.3018 24.1236 17.3055Z"/>
</symbol></svg>