<svg xmlns="http://www.w3.org/2000/svg" xmlns:xlink="http://www.w3.org/1999/xlink"><symbol id="alarm" viewBox="0 0 60 60">
	<path d="M36.5237 24.6623C36.5237 25.2616 36.0369 25.7474 35.4364 25.7474C34.8359 25.7474 34.3491 25.2616 34.3491 24.6623C34.3491 24.063 34.8359 23.5771 35.4364 23.5771C36.0369 23.5771 36.5237 24.063 36.5237 24.6623Z"/>
	<path d="M25.6506 24.6623C25.6506 25.2616 25.1638 25.7474 24.5633 25.7474C23.9628 25.7474 23.476 25.2616 23.476 24.6623C23.476 24.063 23.9628 23.5771 24.5633 23.5771C25.1638 23.5771 25.6506 24.063 25.6506 24.6623Z"/>
	<path d="M25.6506 37.6837C25.6506 38.283 25.1638 38.7688 24.5633 38.7688C23.9628 38.7688 23.476 38.283 23.476 37.6837C23.476 37.0844 23.9628 36.5985 24.5633 36.5985C25.1638 36.5985 25.6506 37.0844 25.6506 37.6837Z"/>
	<path d="M31.0872 39.8539C31.0872 40.4532 30.6004 40.939 29.9999 40.939C29.3994 40.939 28.9126 40.4532 28.9126 39.8539C28.9126 39.2546 29.3994 38.7688 29.9999 38.7688C30.6004 38.7688 31.0872 39.2546 31.0872 39.8539Z"/>
	<path d="M22.3887 31.1073C22.3887 31.7066 21.9019 32.1924 21.3014 32.1924C20.7009 32.1924 20.2141 31.7066 20.2141 31.1073C20.2141 30.508 20.7009 30.0221 21.3014 30.0221C21.9019 30.0221 22.3887 30.508 22.3887 31.1073Z"/>
	<path d="M39.7855 31.1073C39.7855 31.7066 39.2987 32.1924 38.6982 32.1924C38.0977 32.1924 37.6109 31.7066 37.6109 31.1073C37.6109 30.508 38.0977 30.0221 38.6982 30.0221C39.2987 30.0221 39.7855 30.508 39.7855 31.1073Z"/>
	<path d="M36.5237 37.6837C36.5237 38.283 36.0369 38.7688 35.4364 38.7688C34.8359 38.7688 34.3491 38.283 34.3491 37.6837C34.3491 37.0844 34.8359 36.5985 35.4364 36.5985C36.0369 36.5985 36.5237 37.0844 36.5237 37.6837Z"/>
	<path d="M29.2404 23.2733C29.2404 22.8418 29.5902 22.492 30.0217 22.492C30.4532 22.492 30.803 22.8418 30.803 23.2733V31.455C30.803 31.8985 30.4434 32.2581 29.9999 32.2581C29.5804 32.2581 29.2404 31.9181 29.2404 31.4987V23.2733Z"/>
	<path fill-rule="evenodd" clip-rule="evenodd" d="M36.3707 42.5866L38.1965 44.4615C38.4641 44.7363 38.9056 44.7363 39.1732 44.4615C39.4309 44.1969 39.4309 43.7751 39.1732 43.5105L37.8165 42.1173C37.3905 41.6799 37.455 40.9679 37.9142 40.5657C40.5559 38.2519 42.2322 34.8012 42.2322 30.9469C42.2322 24.2336 37.1469 18.7452 30.7322 18.3546V16.8324H36.9822C37.3964 16.8324 37.7322 16.4966 37.7322 16.0824C37.7322 15.6682 37.3964 15.3324 36.9822 15.3324H30.7322H29.2322H22.9822C22.568 15.3324 22.2322 15.6682 22.2322 16.0824C22.2322 16.4966 22.568 16.8324 22.9822 16.8324H29.2322V18.3568C22.8342 18.7655 17.7678 24.246 17.7678 30.9469C17.7678 34.7612 19.4095 38.1801 22.0038 40.4932C22.4566 40.8968 22.5171 41.6032 22.0939 42.0378L20.6597 43.5105C20.402 43.7751 20.402 44.1969 20.6597 44.4615C20.9273 44.7363 21.3688 44.7363 21.6364 44.4615L23.516 42.5314C23.8346 42.2042 24.3326 42.1385 24.7424 42.34C26.3351 43.1231 28.1179 43.5614 30 43.5614C31.8412 43.5614 33.5874 43.1419 35.1537 42.3905C35.562 42.1946 36.0547 42.2622 36.3707 42.5866ZM40.873 30.9469C40.873 37.1396 36.005 42.1598 30 42.1598C23.995 42.1598 19.127 37.1396 19.127 30.9469C19.127 24.7542 23.995 19.734 30 19.734C36.005 19.734 40.873 24.7542 40.873 30.9469Z"/>
</symbol><symbol id="eat" viewBox="0 0 60 60">
	<path fill-rule="evenodd" clip-rule="evenodd" d="M36.1173 15.0761C36.491 14.9214 36.9211 15.0069 37.2071 15.2929C38.1156 16.2014 39.3038 18.1706 40.2659 21.2108C41.2373 24.2804 42 28.5081 42 34C42 34.5523 41.5523 35 41 35H37.5V44C37.5 44.5523 37.0523 45 36.5 45C35.9477 45 35.5 44.5523 35.5 44V16C35.5 15.5956 35.7436 15.2309 36.1173 15.0761ZM37.5 33H39.9911C39.9053 28.1836 39.2051 24.4875 38.3591 21.8142C38.0807 20.9346 37.7885 20.1715 37.5 19.519V33Z"/>
	<path d="M24.5 16C24.5 15.4477 24.0523 15 23.5 15C22.9477 15 22.5 15.4477 22.5 16V24.4097C21.6181 24.2374 21.0598 23.8407 20.7009 23.4166C20.192 22.8152 20 22.0569 20 21.5V16C20 15.4477 19.5523 15 19 15C18.4477 15 18 15.4477 18 16V21.5C18 22.4431 18.308 23.6848 19.1741 24.7084C19.9137 25.5825 21.0074 26.2344 22.5 26.4353V44C22.5 44.5523 22.9477 45 23.5 45C24.0523 45 24.5 44.5523 24.5 44V26.4352C25.9925 26.2344 27.0863 25.5825 27.8259 24.7084C28.692 23.6848 29 22.4431 29 21.5V16C29 15.4477 28.5523 15 28 15C27.4477 15 27 15.4477 27 16V21.5C27 22.0569 26.808 22.8152 26.2991 23.4166C25.9402 23.8407 25.3819 24.2373 24.5 24.4097V16Z"/>
</symbol><symbol id="leaf" viewBox="0 0 60 60">
	<path d="M42.3746 16.767C42.2743 16.317 41.8956 16 41.4634 16H41.4577C36.5199 16.033 24.5124 16.916 19.6646 24.38C17.1465 28.258 16.9299 33.293 19.0206 39.345C19.0365 39.392 19.0693 39.424 19.0909 39.467C18.3437 41.44 18.054 42.753 18.0465 42.79C17.9377 43.33 18.2612 43.862 18.7674 43.978C18.8331 43.993 18.8987 44 18.9643 44C19.3965 44 19.7856 43.679 19.8802 43.21C19.8999 43.108 22.2887 32.837 30.7337 26.832C31.1649 26.526 31.2812 25.905 30.9934 25.445C30.7056 24.985 30.1243 24.86 29.6931 25.168C24.9043 28.573 21.9549 33.176 20.2206 36.824C18.9793 32.246 19.3046 28.447 21.2068 25.519C24.9502 19.755 33.8293 18.365 39.189 18.071C38.0359 19.872 36.7759 23.174 36.7759 29C36.7759 32.12 35.9462 34.522 34.3112 36.14C31.6899 38.731 27.4318 38.974 24.3174 38.724C23.7999 38.679 23.3509 39.095 23.3115 39.646C23.2721 40.196 23.6593 40.676 24.1749 40.718C24.7984 40.769 25.464 40.8 26.1559 40.8C29.3265 40.8 33.0249 40.137 35.5852 37.606C37.6196 35.595 38.6509 32.7 38.6509 29.001C38.6509 19.902 41.8665 17.905 41.8824 17.896C42.2724 17.687 42.4768 17.219 42.3746 16.767Z"/>
</symbol><symbol id="tub" viewBox="0 0 60 60">
	<path d="M36.2761 32.9726C34.5701 32.9726 33.1876 34.4509 33.1876 36.2736C33.1876 38.0978 34.5705 39.5756 36.2761 39.5756C37.9817 39.5756 39.3641 38.0973 39.3641 36.2736C39.3641 34.4504 37.9812 32.9726 36.2761 32.9726ZM36.2761 37.9859C35.392 37.9859 34.6752 37.2196 34.6752 36.2746C34.6752 35.3286 35.392 34.5628 36.2761 34.5628C37.1601 34.5628 37.8774 35.3286 37.8774 36.2746C37.8774 37.2196 37.1601 37.9859 36.2761 37.9859Z"/>
	<path d="M27.1067 14.4894C25.3463 14.4894 23.9194 16.0142 23.9194 17.8965C23.9194 19.7788 25.3458 21.3031 27.1067 21.3031C28.8675 21.3031 30.294 19.7792 30.294 17.8965C30.2935 16.0137 28.8671 14.4894 27.1067 14.4894ZM27.1062 19.9652C26.0373 19.9652 25.1709 19.0391 25.1709 17.896C25.1709 16.7533 26.0373 15.8267 27.1062 15.8267C28.1756 15.8267 29.042 16.7533 29.042 17.896C29.042 19.0391 28.1756 19.9652 27.1062 19.9652Z"/>
	<path d="M34.0001 24.2621C34.0001 24.2621 37.0401 23.4237 40.178 25.7559C41.0851 26.5159 41.9433 27.0923 41.3303 27.8785C40.9868 28.219 40.6932 28.5353 39.6143 27.3544C38.5603 26.5944 36.8946 25.4561 34.0001 25.9129C32.8722 26.1493 32.0385 26.4636 30.4444 28.062C28.8507 29.6605 26.4723 30.7871 23.947 30.5513C21.4218 30.3158 20.0982 29.2933 18.7007 28.0093C18.4067 27.5898 18.4067 27.1442 18.578 26.8821C18.7492 26.6201 19.4112 26.358 19.7792 26.7508C20.1471 27.1442 21.8876 28.7164 23.6036 28.8211C25.32 28.9257 27.0364 29.0308 29.3406 26.8555C31.6465 24.6816 32.7988 24.5242 34.0001 24.2621Z"/>
	<path d="M44.1455 41.315V22.6569C44.1455 22.0785 43.7717 22.0069 43.6217 22.0015H43.116C42.6226 22.0015 42.5795 22.5581 42.5782 22.7402C42.5782 22.7581 42.5782 22.7731 42.5782 22.7911V22.8008C42.5795 26.4093 42.5872 41.0539 42.5764 41.3407C42.5641 41.6686 42.5029 42.5071 41.7553 43.2278C40.9469 43.9229 40.1376 43.8309 40.1376 43.8309C40.1376 43.8309 19.9604 43.8309 19.4824 43.8042C19.1027 43.7388 18.4407 43.5945 17.8765 42.7953C17.3128 41.9961 17.4234 40.9479 17.4234 40.9479V22.8143C17.4234 21.9759 16.7491 22.002 16.7491 22.002H16.4419C15.9059 22.002 15.8565 22.5901 15.8538 22.7785C15.8538 26.2403 15.8538 40.1462 15.8538 41.3155C15.8538 42.6524 16.3073 43.7132 17.4016 44.6524C18.4955 45.5911 19.7765 45.5087 19.7765 45.5087C19.7765 45.5087 39.5001 45.5087 40.3583 45.5063C41.2165 45.5039 42.3439 45.0898 43.2742 43.951C44.2035 42.8122 44.1455 41.315 44.1455 41.315Z"/>
	<path d="M23.7268 32.1099C22.4331 32.1099 21.3855 33.2298 21.3855 34.6127C21.3855 35.9951 22.4331 37.1155 23.7268 37.1155C25.0205 37.1155 26.0681 35.9951 26.0681 34.6127C26.0681 33.2303 25.0205 32.1099 23.7268 32.1099Z"/>
</symbol></svg>